<?xml version="1.0" encoding="iso-8859-1"?>
<!-- Generator: Adobe Illustrator 19.0.0, SVG Export Plug-In . SVG Version: 6.00 Build 0)  -->
<svg version="1.1" id="Capa_1" xmlns="http://www.w3.org/2000/svg" xmlns:xlink="http://www.w3.org/1999/xlink" x="0px" y="0px"
	 viewBox="0 0 204.8 204.8" style="enable-background:new 0 0 204.8 204.8;" xml:space="preserve">
<g>
	<g>
		<path d="M174.807,29.993C155.467,10.651,129.751,0,102.4,0C75.049,0,49.335,10.653,29.993,29.993C10.651,49.333,0,75.049,0,102.4
			c0,27.351,10.653,53.065,29.993,72.407C49.333,194.149,75.049,204.8,102.4,204.8c27.351,0,53.065-10.653,72.407-29.993
			S204.8,129.751,204.8,102.4C204.8,75.049,194.147,49.335,174.807,29.993z M169.981,169.981
			c-18.051,18.051-42.052,27.993-67.581,27.993s-49.529-9.941-67.581-27.993C16.768,151.929,6.827,127.928,6.827,102.4
			s9.941-49.529,27.993-67.581C52.871,16.768,76.872,6.827,102.4,6.827s49.529,9.941,67.581,27.993
			c18.051,18.051,27.993,42.052,27.993,67.581S188.032,151.929,169.981,169.981z"/>
	</g>
</g>
<g>
	<g>
		<path d="M102.427,0.029c-1.884,0-3.413,1.529-3.413,3.413c0,25.528-9.941,49.529-27.993,67.581
			C52.97,89.076,28.971,99.016,3.442,99.016c-0.009,0-0.021,0-0.029,0c-1.884,0-3.413,1.529-3.413,3.413
			c0,1.896,1.538,3.471,3.444,3.413c27.349,0,53.065-10.651,72.404-29.993c19.342-19.34,29.993-45.056,29.993-72.407
			C105.841,1.558,104.311,0.029,102.427,0.029z"/>
	</g>
</g>
<g>
	<g>
		<path d="M200.151,97.749c-27.351,0-53.065,10.651-72.407,29.993c-19.35,19.349-30.001,45.075-29.993,72.438
			c0,1.886,1.529,3.413,3.413,3.413c1.886-0.002,3.413-1.529,3.413-3.415c-0.007-25.54,9.935-49.55,27.993-67.61
			c18.051-18.051,42.052-27.993,67.581-27.993c1.884,0,3.413-1.529,3.413-3.413C203.564,99.278,202.035,97.749,200.151,97.749z"/>
	</g>
</g>
<g>
	<g>
		<path d="M174.807,29.993c-1.331-1.333-3.495-1.333-4.826,0L29.993,169.981c-1.333,1.333-1.333,3.494,0,4.826
			c0.666,0.667,1.539,1,2.413,1c0.874,0,1.748-0.333,2.413-1L174.807,34.819C176.14,33.486,176.14,31.326,174.807,29.993z"/>
	</g>
</g>
<g>
	<g>
		<path d="M177.22,167.567L37.233,27.58c-1.331-1.333-3.495-1.333-4.826,0c-1.333,1.333-1.333,3.494,0,4.826l139.988,139.988
			c0.666,0.667,1.539,1,2.413,1c0.874,0,1.748-0.333,2.413-1C178.553,171.061,178.553,168.9,177.22,167.567z"/>
	</g>
</g>
<g>
</g>
<g>
</g>
<g>
</g>
<g>
</g>
<g>
</g>
<g>
</g>
<g>
</g>
<g>
</g>
<g>
</g>
<g>
</g>
<g>
</g>
<g>
</g>
<g>
</g>
<g>
</g>
<g>
</g>
</svg>
