<?xml version="1.0" encoding="iso-8859-1"?>
<!-- Generator: Adobe Illustrator 19.0.0, SVG Export Plug-In . SVG Version: 6.00 Build 0)  -->
<svg version="1.1" id="Capa_1" xmlns="http://www.w3.org/2000/svg" xmlns:xlink="http://www.w3.org/1999/xlink" x="0px" y="0px"
	 viewBox="0 0 511.999 511.999" style="enable-background:new 0 0 511.999 511.999;" xml:space="preserve">
<g>
	<g>
		<path d="M405.237,101.927h-42.149c-4.204,0-7.611,3.408-7.611,7.611c0,4.204,3.408,7.612,7.611,7.612h42.148
			c11.856,0,21.652,9.326,21.84,20.788c0.094,5.777-2.104,11.213-6.18,15.297c-4.003,3.995-9.312,6.194-14.952,6.194H291.689
			c-11.948,0-23.162,4.672-31.576,13.155c-0.522,0.526-1.028,1.063-1.519,1.609c-21.201,4.9-37.524,3.03-48.513-5.605
			c-12.287-9.655-15.269-25.768-15.992-33.095c17.579-11.587,38.612-18.343,61.195-18.343h72.285c4.204,0,7.612-3.408,7.612-7.611
			c0-4.204-3.408-7.612-7.612-7.612h-42.915c5.386-10,8.264-21.253,8.264-32.784C292.916,31.018,261.898,0,223.771,0
			c-38.133,0-69.156,31.018-69.156,69.145c0,22.063,10.735,42.749,28.146,55.648c-32.744,22.933-54.199,60.933-54.199,103.854V321
			l-31.5,31.443c-2.976,2.969-2.98,7.789-0.01,10.764c2.969,2.976,7.789,2.98,10.764,0.01l7.949-7.935l26.409,26.409l-42.992,42.925
			l-26.405-26.405l10.052-10.03c2.976-2.969,2.981-7.788,0.012-10.764c-2.969-2.976-7.788-2.981-10.764-0.012l-61.491,61.354
			c-2.954,2.947-2.984,7.725-0.066,10.709l59.445,60.285c1.418,1.438,3.354,2.248,5.374,2.248h0.027
			c2.019,0,3.954-0.802,5.381-2.229l4.178-4.177c13.596-13.596,15.218-34.703,4.866-50.092l128.21-128.011l38.195,38.195
			l-49.512,49.227c-2.963,2.946-2.997,7.73-0.076,10.719l59.447,60.285c1.419,1.438,3.354,2.248,5.375,2.248h0.026
			c2.019,0,3.955-0.802,5.382-2.23l4.177-4.177c13.533-13.533,15.193-34.588,4.945-49.963l52.288-52.289
			c13.211-13.211,13.211-34.708,0-47.92l-75.383-75.383l-0.428-52.058c-0.063-7.702,2.829-14.964,8.154-20.503
			c5.657-5.884,13.618-8.989,21.781-8.989h113.571c9.7,0,18.829-3.779,25.716-10.653c7.022-7.036,10.799-16.38,10.637-26.31
			C441.976,117.97,425.351,101.927,405.237,101.927z M74.168,449.592c-1.429,1.427-2.233,3.363-2.234,5.384
			c-0.001,2.021,0.802,3.957,2.23,5.385c9.085,9.085,9.485,23.617,1.199,33.181l-48.688-49.33l35.328-35.249l26.409,26.408
			L74.168,449.592z M171.723,83.148c-1.228-4.514-1.884-9.217-1.884-14.004c-0.001-29.732,24.193-53.921,53.932-53.921
			c17.866,0,33.721,8.74,43.538,22.162c-7.948,6.856-34.541,13.285-55.943,6.731c-1.665-0.502-3.341-0.93-4.981-1.269
			c-2.058-0.425-4.207,0.021-5.926,1.233c-1.719,1.212-2.861,3.084-3.152,5.168C195.187,64.433,185.42,77.119,171.723,83.148z
			 M177.743,97.137c15.974-6.984,28.003-20.671,32.863-37.453c12.205,2.966,27.213,3.091,40.98,0.263
			c6.346-1.304,15.75-3.946,22.952-8.959c2.037,5.677,3.154,11.789,3.154,18.158c0,11.899-3.936,23.41-11.125,32.784h-11.285
			c-20.932,0-40.691,5.106-58.107,14.131C189.105,111.468,182.462,104.89,177.743,97.137z M143.788,228.649
			c-0.002-32.674,14.125-62.108,36.59-82.519c2.317,10.503,7.695,24.466,20.179,34.337c9.792,7.743,22.155,11.625,36.931,11.625
			c3.686,0,7.532-0.256,11.517-0.74c-1.211,4.14-1.823,8.48-1.786,12.918l0.397,48.197l-103.827,9.888V228.649z M270.358,425.873
			c-2.963,2.962-2.975,7.762-0.025,10.738c8.997,9.082,9.362,23.574,1.119,33.096l-48.679-49.319l34.798-34.596l26.434,26.434
			L270.358,425.873z M327.486,342.353c7.276,7.275,7.276,19.114,0,26.391l-32.718,32.718l-26.403-26.403l3.98-3.957
			c1.434-1.426,2.242-3.364,2.245-5.387c0.003-2.023-0.8-3.963-2.23-5.393l-5.296-5.296l36.547-36.547L327.486,342.353z
			 M292.848,307.714l-36.547,36.547l-27.339-27.34l15.452-14.421c3.073-2.868,3.239-7.685,0.371-10.758
			c-2.869-3.073-7.685-3.238-10.758-0.371l-21.213,19.797c-0.03,0.028-0.056,0.06-0.085,0.088c-0.032,0.031-0.068,0.058-0.099,0.089
			l-59.682,59.59l-26.408-26.408l15.011-14.983c1.431-1.428,2.235-3.365,2.235-5.387v-46.51L252.434,267.3L292.848,307.714z"/>
	</g>
</g>
<g>
	<g>
		<path d="M483.425,209.708c-13.06-13.06-30.425-20.254-48.894-20.254c-18.471,0-35.835,7.192-48.895,20.254
			c-13.06,13.06-20.254,30.425-20.254,48.894c0,18.471,7.192,35.835,20.254,48.895c13.48,13.48,31.187,20.22,48.894,20.22
			s35.415-6.741,48.895-20.22C510.386,280.537,510.386,236.669,483.425,209.708z M472.661,220.472
			c8.527,8.527,13.594,19.223,15.205,30.326c-11.429-1.651-21.976-6.908-30.299-15.231c-8.333-8.333-13.595-18.891-15.235-30.328
			C453.774,206.888,464.339,212.15,472.661,220.472z M396.401,296.734c-8.322-8.322-13.585-18.886-15.233-30.328
			c11.417,1.636,22,6.901,30.33,15.232c8.324,8.324,13.582,18.87,15.228,30.301C415.621,310.328,404.927,305.26,396.401,296.734z
			 M442.06,311.974c-1.722-15.517-8.581-29.885-19.798-41.101c-11.226-11.226-25.605-18.093-41.127-19.8
			c1.256-9.045,4.769-17.547,10.264-24.838l75.494,75.494C459.449,307.322,450.881,310.741,442.06,311.974z M477.658,290.965
			l-75.495-75.494c7.292-5.495,15.792-9.008,24.838-10.264c1.716,15.524,8.578,29.901,19.803,41.125
			c11.215,11.215,25.58,18.079,41.098,19.806C486.668,274.957,483.249,283.523,477.658,290.965z"/>
	</g>
</g>
<g>
	<g>
		<path d="M252.444,66.315c-4.204,0-7.612,3.408-7.612,7.611v8.689c0,4.204,3.408,7.611,7.612,7.611
			c4.204,0,7.611-3.408,7.611-7.611v-8.689C260.056,69.723,256.648,66.315,252.444,66.315z"/>
	</g>
</g>
<g>
</g>
<g>
</g>
<g>
</g>
<g>
</g>
<g>
</g>
<g>
</g>
<g>
</g>
<g>
</g>
<g>
</g>
<g>
</g>
<g>
</g>
<g>
</g>
<g>
</g>
<g>
</g>
<g>
</g>
</svg>
