<?xml version="1.0" encoding="iso-8859-1"?>
<!-- Generator: Adobe Illustrator 19.0.0, SVG Export Plug-In . SVG Version: 6.00 Build 0)  -->
<svg version="1.1" id="Capa_1" xmlns="http://www.w3.org/2000/svg" xmlns:xlink="http://www.w3.org/1999/xlink" x="0px" y="0px"
	 viewBox="0 0 512 512" style="enable-background:new 0 0 512 512;" xml:space="preserve">
<g>
	<g>
		<path d="M375.467,298.667H136.533c-4.71,0-8.533,3.823-8.533,8.533v34.133c0,4.71,3.823,8.533,8.533,8.533h238.933
			c4.71,0,8.533-3.823,8.533-8.533V307.2C384,302.49,380.177,298.667,375.467,298.667z M366.933,332.8H145.067v-17.067h221.867
			V332.8z"/>
	</g>
</g>
<g>
	<g>
		<path d="M366.421,338.432c-1.22-3.379-4.429-5.632-8.021-5.632H153.6c-3.576,0-6.758,2.253-7.996,5.606
			c-1.237,3.354-0.23,7.142,2.5,9.455c0.486,0.41,48.162,42.086,48.162,147.072c0,2.739,1.314,5.316,3.541,6.912
			c2.227,1.613,5.077,2.022,7.688,1.178l21.641-7.211l22.127,14.754c1.434,0.956,3.089,1.434,4.736,1.434
			c1.647,0,3.302-0.478,4.727-1.425l22.127-14.754l21.641,7.211c2.594,0.845,5.461,0.427,7.689-1.178
			c2.236-1.604,3.55-4.181,3.55-6.921c0-104.986,47.676-146.662,48.128-147.046C366.618,345.591,367.642,341.811,366.421,338.432z
			 M298.854,483.157l-14.558-4.855c-2.5-0.819-5.239-0.461-7.432,0.998L256,493.21L235.136,479.3
			c-1.417-0.947-3.072-1.434-4.736-1.434c-0.905,0-1.818,0.145-2.705,0.435l-14.558,4.855
			c-2.313-70.946-25.225-112.956-40.499-133.291h166.716C324.087,370.202,301.167,412.211,298.854,483.157z"/>
	</g>
</g>
<g>
	<g>
		<path d="M309.197,486.033c-2.569-0.614-5.137-1.237-7.322-1.86l-12.348-4.113c-38.554-14.268-70.656-41.865-90.394-77.705
			c-2.27-4.13-7.458-5.632-11.588-3.362c-4.13,2.27-5.641,7.458-3.362,11.588c21.717,39.424,57.028,69.777,99.686,85.572
			l12.954,4.309c2.773,0.794,5.589,1.493,8.422,2.167c0.666,0.154,1.323,0.23,1.98,0.23c3.866,0,7.364-2.637,8.303-6.545
			C316.612,491.725,313.779,487.125,309.197,486.033z"/>
	</g>
</g>
<g>
	<g>
		<path d="M311.612,442.257c-50.022-7.996-87.671-50.569-89.532-101.24c-0.171-4.71-4.062-8.354-8.841-8.218
			c-4.71,0.171-8.388,4.13-8.218,8.841c2.159,58.786,45.858,108.194,103.902,117.461c0.452,0.077,0.904,0.111,1.357,0.111
			c4.113,0,7.74-2.987,8.414-7.185C319.437,447.377,316.262,443,311.612,442.257z"/>
	</g>
</g>
<g>
	<g>
		<path d="M318.746,413.474c-31.249-10.982-52.446-39.458-54.007-72.542c-0.222-4.71-4.454-8.26-8.926-8.124
			c-4.71,0.222-8.346,4.224-8.124,8.926c1.894,40.055,27.563,74.539,65.399,87.842c0.939,0.324,1.894,0.486,2.833,0.486
			c3.524,0,6.818-2.193,8.047-5.709C325.53,419.908,323.191,415.036,318.746,413.474z"/>
	</g>
</g>
<g>
	<g>
		<path d="M331.503,386.355c-12.749-12.51-20.83-28.501-23.373-46.234c-0.666-4.668-4.966-7.893-9.66-7.236
			c-4.668,0.666-7.91,4.992-7.236,9.66c3.038,21.163,13.09,41.045,28.305,55.987c1.664,1.638,3.823,2.449,5.982,2.449
			c2.21,0,4.42-0.853,6.093-2.56C334.916,395.059,334.865,389.658,331.503,386.355z"/>
	</g>
</g>
<g>
	<g>
		<path d="M324.463,398.976c-4.122-2.261-9.31-0.768-11.588,3.362c-19.746,35.84-51.849,63.437-90.129,77.619l-12.279,4.096
			c-2.526,0.725-5.086,1.357-7.654,1.963c-4.582,1.092-7.416,5.692-6.332,10.283c0.93,3.925,4.429,6.562,8.294,6.562
			c0.657,0,1.314-0.077,1.988-0.239c2.825-0.674,5.641-1.374,8.755-2.278l12.885-4.292c42.385-15.701,77.696-46.054,99.422-85.487
			C330.095,406.443,328.593,401.254,324.463,398.976z"/>
	</g>
</g>
<g>
	<g>
		<path d="M298.761,332.809c-4.804-0.102-8.661,3.507-8.841,8.218c-1.86,50.671-39.509,93.244-89.532,101.231
			c-4.659,0.742-7.825,5.12-7.083,9.771c0.674,4.198,4.301,7.185,8.414,7.185c0.452,0,0.905-0.034,1.357-0.102
			c58.044-9.267,101.743-58.667,103.902-117.461C307.149,336.939,303.471,332.988,298.761,332.809z"/>
	</g>
</g>
<g>
	<g>
		<path d="M256.188,332.809c-4.523-0.145-8.704,3.413-8.926,8.124c-1.562,33.075-22.758,61.56-54.008,72.542
			c-4.446,1.562-6.784,6.434-5.222,10.88c1.229,3.516,4.523,5.709,8.047,5.709c0.939,0,1.894-0.154,2.833-0.486
			c37.837-13.295,63.505-47.778,65.399-87.842C264.533,337.033,260.898,333.03,256.188,332.809z"/>
	</g>
</g>
<g>
	<g>
		<path d="M213.538,332.894c-4.685-0.691-8.994,2.568-9.66,7.236c-2.551,17.732-10.624,33.715-23.373,46.234
			c-3.362,3.302-3.413,8.704-0.111,12.066c1.664,1.698,3.874,2.551,6.084,2.551c2.159,0,4.318-0.811,5.99-2.441
			c15.215-14.942,25.267-34.825,28.305-55.987C221.44,337.886,218.197,333.56,213.538,332.894z"/>
	</g>
</g>
<g>
	<g>
		<path d="M503.467,0H8.533C3.823,0,0,3.823,0,8.533V384c0,4.71,3.823,8.533,8.533,8.533h174.285c2.918,0,5.623-1.485,7.194-3.951
			c1.57-2.458,1.775-5.547,0.538-8.192c-6.135-13.15-12.587-23.228-18.039-30.524h166.972c-5.444,7.296-11.895,17.365-18.031,30.524
			c-1.237,2.645-1.033,5.734,0.538,8.192c1.562,2.466,4.275,3.951,7.194,3.951h174.285c4.71,0,8.533-3.823,8.533-8.533V8.533
			C512,3.823,508.177,0,503.467,0z M494.933,375.467H343.168c10.726-18.901,20.634-27.529,20.727-27.605
			c2.739-2.313,3.746-6.093,2.517-9.455c-1.229-3.362-4.429-5.606-8.013-5.606H153.6c-3.567,0-6.75,2.236-7.987,5.589
			c-1.237,3.345-0.247,7.125,2.466,9.446c0.12,0.102,10.027,8.721,20.753,27.631H17.067v-358.4h477.867V375.467z"/>
	</g>
</g>
<g>
	<g>
		<path d="M469.333,34.133H42.667c-4.71,0-8.533,3.823-8.533,8.533v307.2c0,4.71,3.823,8.533,8.533,8.533h119.04
			c3.311,0,6.323-1.92,7.731-4.915c0.538-1.152,0.802-2.389,0.802-3.618h171.52c0,1.229,0.265,2.466,0.802,3.618
			c1.408,2.995,4.42,4.915,7.731,4.915h119.04c4.71,0,8.533-3.823,8.533-8.533v-307.2C477.867,37.956,474.044,34.133,469.333,34.133
			z M460.8,341.333h-93.867c0-0.973-0.171-1.954-0.512-2.91c-1.229-3.379-4.429-5.623-8.021-5.623H153.6
			c-3.576,0-6.758,2.244-7.996,5.598c-0.35,0.964-0.521,1.954-0.521,2.935H51.2V51.2h409.6V341.333z"/>
	</g>
</g>
<g>
	<g>
		<path d="M358.4,162.133H153.6c-4.71,0-8.533,3.823-8.533,8.533V307.2c0,4.71,3.823,8.533,8.533,8.533h204.8
			c4.71,0,8.533-3.823,8.533-8.533V170.667C366.933,165.956,363.11,162.133,358.4,162.133z M349.867,298.667H162.133V179.2h187.733
			V298.667z"/>
	</g>
</g>
<g>
	<g>
		<path d="M324.267,196.267H187.733c-4.71,0-8.533,3.823-8.533,8.533v102.4c0,4.71,3.823,8.533,8.533,8.533h136.533
			c4.71,0,8.533-3.823,8.533-8.533V204.8C332.8,200.09,328.977,196.267,324.267,196.267z M315.733,298.667H196.267v-85.333h119.467
			V298.667z"/>
	</g>
</g>
<g>
</g>
<g>
</g>
<g>
</g>
<g>
</g>
<g>
</g>
<g>
</g>
<g>
</g>
<g>
</g>
<g>
</g>
<g>
</g>
<g>
</g>
<g>
</g>
<g>
</g>
<g>
</g>
<g>
</g>
</svg>
