<?xml version="1.0" encoding="iso-8859-1"?>
<!-- Generator: Adobe Illustrator 17.1.0, SVG Export Plug-In . SVG Version: 6.00 Build 0)  -->
<!DOCTYPE svg PUBLIC "-//W3C//DTD SVG 1.1//EN" "http://www.w3.org/Graphics/SVG/1.1/DTD/svg11.dtd">
<svg version="1.1" id="Capa_1" xmlns="http://www.w3.org/2000/svg" xmlns:xlink="http://www.w3.org/1999/xlink" x="0px" y="0px"
	 viewBox="0 0 489.394 489.394" style="enable-background:new 0 0 489.394 489.394;" xml:space="preserve">
<g>
	<path d="M121.439,158.413c2.051,0,4.129-0.137,6.177-0.406c25.65-3.375,43.773-26.993,40.396-52.648
		c-3.059-23.269-23.035-40.815-46.464-40.815c-2.05,0-4.127,0.136-6.173,0.405c-12.43,1.635-23.478,8.013-31.109,17.958
		c-7.63,9.943-10.932,22.264-9.297,34.69C78.029,140.865,98.007,158.413,121.439,158.413z"/>
	<path d="M240.201,149.417c-3.047-1.786-6.514-2.73-10.026-2.73c-7.028,0-13.599,3.763-17.146,9.82c0,0-27.031,48.518-28.611,48.808
		c-2.094,0.383-20.672-5.985-20.672-5.985l0.343-2.971l6.471-2.192c10.519-3.565,21.395-12.965,26.447-22.858l25.098-49.146
		c2.413-4.724,2.842-10.104,1.207-15.15c-1.635-5.047-5.137-9.154-9.86-11.566c-2.828-1.445-5.862-2.178-9.018-2.178
		c-7.507,0-14.289,4.15-17.7,10.832c0,0-17.885,36.922-25.026,49.015c-3.541,5.996-23.721,11.028-30.622,12.494
		c-8.647,1.836-26.489,2.436-35.058,4.611c-9.987,2.536-12.923,7.136-13.707,13.925l-20.866,162.37
		c-0.477,4.329-2.251,12.016-3.723,16.126l-21.063,58.758c-1.889,5.265-1.612,10.949,0.776,16.007
		c2.389,5.057,6.604,8.881,11.867,10.767c2.061,0.74,4.207,1.152,6.377,1.223c0.229,0.008,0.459,0.012,0.688,0.012
		c8.815,0,16.736-5.577,19.712-13.879l21.063-58.76c2.55-7.115,5.098-18.148,5.913-25.568l7.699-48.494l19.491-2.564
		c0.012,0.008,0.021,0.016,0.032,0.023l23.377,15.464l-34.036,54.725c-6.096,9.804-3.08,22.741,6.723,28.839
		c3.324,2.066,7.142,3.159,11.041,3.159c7.295,0,13.948-3.694,17.797-9.882l39.09-62.849c9.07-14.587,4.795-34.165-9.532-43.644
		l-28.808-19.055l3.186-27.58l18.718,5.42c2.863,0.828,5.863,1.123,8.908,1.248c16.665,0.684,23.67-6.513,29.578-16.592
		l30.965-52.826c2.683-4.576,3.422-9.923,2.083-15.055C248.036,156.404,244.777,152.1,240.201,149.417z"/>
	<path d="M292.642,88.07c24.281,0,44.035-19.754,44.035-44.035C336.677,19.754,316.923,0,292.642,0
		c-24.281,0-44.035,19.754-44.035,44.035C248.607,68.316,268.361,88.07,292.642,88.07z"/>
	<path d="M442.277,466.013h-42.732V224.625v-92.01v-2.814c0-10.572-8.6-19.173-19.173-19.173H273.343
		c-5.6,0-10.692,2.424-13.975,6.65c-3.281,4.227-4.367,9.761-2.98,15.184l24.365,95.294c2.339,9.145,11.222,16.042,20.662,16.042
		h74.749v222.215h-41.979c-6.456,0-11.69,5.234-11.69,11.69c0,6.456,5.234,11.69,11.69,11.69h108.092
		c6.456,0,11.69-5.234,11.69-11.69C453.967,471.247,448.733,466.013,442.277,466.013z M303.01,220.417l-22.094-86.408h95.248v86.408
		H303.01z"/>
</g>
<g>
</g>
<g>
</g>
<g>
</g>
<g>
</g>
<g>
</g>
<g>
</g>
<g>
</g>
<g>
</g>
<g>
</g>
<g>
</g>
<g>
</g>
<g>
</g>
<g>
</g>
<g>
</g>
<g>
</g>
</svg>
